Coordinates
version=1
nRows=8
nColumns=63
inDegrees=yes

Units are S.I. units (second, meters, Newtons, ...)
If the header above contains a line with 'inDegrees', this indicates whether rotational values are in degrees (yes) or radians (no).

endheader
time	pelvis_tilt	pelvis_list	pelvis_rotation	pelvis_tx	pelvis_ty	pelvis_tz	hip_flexion_r	hip_adduction_r	hip_rotation_r	knee_angle_r	knee_angle_r_beta	ankle_angle_r	subtalar_angle_r	mtp_angle_r	hip_flexion_l	hip_adduction_l	hip_rotation_l	knee_angle_l	knee_angle_l_beta	ankle_angle_l	subtalar_angle_l	mtp_angle_l	L5_S1_Flex_Ext	L5_S1_Lat_Bending	L5_S1_axial_rotation	L4_L5_Flex_Ext	L4_L5_Lat_Bending	L4_L5_axial_rotation	L3_L4_Flex_Ext	L3_L4_Lat_Bending	L3_L4_axial_rotation	L2_L3_Flex_Ext	L2_L3_Lat_Bending	L2_L3_axial_rotation	L1_L2_Flex_Ext	L1_L2_Lat_Bending	L1_L2_axial_rotation	L1_T12_Flex_Ext	L1_T12_Lat_Bending	L1_T12_axial_rotation	Abs_r3	Abs_r2	Abs_r1	Abs_t1	Abs_t2	neck_flexion	neck_bending	neck_rotation	arm_flex_r	arm_add_r	arm_rot_r	elbow_flex_r	pro_sup_r	wrist_flex_r	wrist_dev_r	arm_flex_l	arm_add_l	arm_rot_l	elbow_flex_l	pro_sup_l	wrist_flex_l	wrist_dev_l
3.800000	-0.743357	-5.462110	85.440798	0.190944	0.915817	0.621952	2.319947	-2.645899	1.357733	9.027676	0.157563	29.084107	12.497790	0.000000	2.414831	1.384808	5.780215	10.624722	0.185436	23.226541	-10.430259	0.000000	-0.227687	0.227957	0.247930	-0.422837	0.303182	0.263425	-0.374066	0.554254	0.263425	-0.260223	0.554254	0.216939	-0.211430	0.464849	0.201443	-0.130100	0.353105	0.185947	-1.626343	2.578691	1.378911	0.000000	0.000000	20.815430	0.303015	3.188690	9.616588	-13.786092	108.117181	8.956812	15.038620	-0.217175	-10.606697	7.838128	-14.160237	84.441239	18.999481	38.580440	-10.399728	-8.571729
3.816667	-0.758656	-5.477473	85.416257	0.191118	0.915836	0.621938	2.330138	-2.634684	1.784543	9.048598	0.157928	28.969843	12.087280	0.000000	2.455130	1.412488	5.915676	10.695334	0.186669	23.144903	-10.786951	0.000000	-0.228109	0.225089	0.248416	-0.423622	0.299369	0.263942	-0.374761	0.547282	0.263942	-0.260706	0.547282	0.217364	-0.211822	0.459002	0.201838	-0.130342	0.348663	0.186312	-1.629363	2.546254	1.381618	0.000000	0.000000	20.814866	0.199360	3.275389	10.031799	-13.337071	113.890186	7.698034	10.462258	0.637785	-11.164737	7.642368	-14.315181	82.464131	19.342422	40.445210	-10.548358	-8.487692
3.833333	-0.764167	-5.496165	85.429184	0.191260	0.915839	0.621857	2.326171	-2.613336	2.172796	9.065910	0.158230	28.844146	11.662487	0.000000	2.511982	1.424882	6.026814	10.800141	0.188498	23.086906	-11.052505	0.000000	-0.229868	0.222157	0.252055	-0.426888	0.295469	0.267809	-0.377650	0.540153	0.267809	-0.262716	0.540153	0.220548	-0.213456	0.453023	0.204795	-0.131347	0.344122	0.189041	-1.641925	2.513087	1.401855	0.000000	0.000000	20.859148	0.128511	3.332713	10.314363	-12.924978	118.631193	6.615358	6.624953	1.458886	-11.559015	7.443288	-14.480132	80.368010	19.711099	42.249587	-10.640183	-8.337003
3.850000	-0.759084	-5.519153	85.467342	0.191367	0.915850	0.621702	2.316017	-2.584274	2.483506	9.088011	0.158616	28.714290	11.275329	0.000000	2.574942	1.428704	6.196706	10.913831	0.190482	23.010340	-11.356131	0.000000	-0.231210	0.219456	0.259464	-0.429379	0.291876	0.275680	-0.379854	0.533585	0.275680	-0.264249	0.533585	0.227031	-0.214701	0.447514	0.210814	-0.132113	0.339937	0.194598	-1.651507	2.482529	1.443061	0.000000	0.000000	20.921559	0.099737	3.370587	10.556696	-12.583682	122.889506	5.653514	3.030028	2.231129	-11.913108	7.333073	-14.603868	79.064355	20.000101	43.055990	-10.570790	-8.271807
3.866667	-0.767587	-5.544110	85.544600	0.191539	0.915893	0.621455	2.290096	-2.563781	2.734933	9.097621	0.158783	28.582172	10.883445	0.000000	2.641890	1.435714	6.358632	11.029006	0.192492	22.945608	-11.563245	0.000000	-0.231169	0.212088	0.266473	-0.429304	0.282078	0.283128	-0.379787	0.515672	0.283128	-0.264203	0.515672	0.233164	-0.214663	0.432491	0.216510	-0.132090	0.328525	0.199855	-1.651216	2.399187	1.482045	0.000000	0.000000	20.987548	0.147270	3.369210	10.997225	-12.038563	130.168231	4.040160	-3.239945	3.414290	-12.677813	7.213186	-14.752545	77.805863	20.281908	43.658596	-10.402449	-8.130823
3.883333	-0.743188	-5.564540	85.645451	0.191619	0.915920	0.621132	2.251499	-2.520538	2.838039	9.107877	0.158962	28.469319	10.621331	0.000000	2.707825	1.406818	6.499726	11.151561	0.194631	22.949199	-11.658516	0.000000	-0.230756	0.208440	0.277197	-0.428537	0.277226	0.294522	-0.379109	0.506802	0.294522	-0.263731	0.506802	0.242547	-0.214280	0.425052	0.225223	-0.131854	0.322874	0.207898	-1.648265	2.357919	1.541686	0.000000	0.000000	21.056011	0.223453	3.368058	11.140637	-11.742223	133.813920	3.183825	-6.411675	4.172117	-12.956387	7.141302	-14.849585	77.024879	20.481557	43.717965	-10.119110	-7.985006
3.900000	-0.688124	-5.580134	85.783559	0.191593	0.915933	0.620741	2.196210	-2.452382	2.838393	9.105863	0.158927	28.373886	10.412006	0.000000	2.778075	1.344354	6.622309	11.285418	0.196968	23.034279	-11.621224	0.000000	-0.228963	0.208206	0.286326	-0.425207	0.276914	0.304222	-0.376163	0.506233	0.304222	-0.261682	0.506233	0.250535	-0.212615	0.424574	0.232640	-0.130829	0.322512	0.214745	-1.635458	2.355272	1.592461	0.000000	0.000000	21.109095	0.333818	3.377163	10.999475	-11.686956	133.844363	3.072662	-6.516483	4.503022	-12.738742	7.115395	-14.889535	76.766305	20.578413	43.198983	-9.728686	-7.827466
3.916667	-0.598105	-5.579288	85.940762	0.191505	0.915950	0.620292	2.106110	-2.344870	2.870287	9.066142	0.158234	28.270812	10.098729	0.000000	2.843589	1.225174	6.525969	11.439019	0.199649	23.269769	-11.184895	0.000000	-0.227665	0.212054	0.295118	-0.422797	0.282032	0.313563	-0.374031	0.515588	0.313563	-0.260198	0.515588	0.258228	-0.211410	0.432421	0.239783	-0.130088	0.328472	0.221338	-1.626189	2.398799	1.641356	0.000000	0.000000	21.141046	0.473474	3.415900	10.596260	-11.882084	130.376527	3.704915	-3.639630	4.374957	-12.064428	7.145069	-14.870312	77.095769	20.562631	42.084864	-9.250533	-7.698431
